<svg width="20" height="20" viewBox="0 0 20 20" fill="none" xmlns="http://www.w3.org/2000/svg">
<path d="M4.06585 8.26762L1.58742 10.7461C0.57101 11.7625 0 13.141 0 14.5784C0 16.0158 0.57101 17.3944 1.58742 18.4108C2.60382 19.4272 3.98236 19.9982 5.41978 19.9982C6.85719 19.9982 8.23573 19.4272 9.25213 18.4108L12.5543 15.1068C13.1672 14.4938 13.6241 13.7427 13.8867 12.9166C14.1493 12.0904 14.2099 11.2134 14.0633 10.359C13.9168 9.50462 13.5675 8.69785 13.0446 8.00642C12.5218 7.31499 11.8407 6.75907 11.0586 6.38531L10 7.44389C9.89253 7.55155 9.79907 7.67233 9.72181 7.80337C10.3261 7.97709 10.8746 8.30552 11.3131 8.75619C11.7516 9.20686 12.0648 9.76416 12.2219 10.373C12.379 10.9818 12.3745 11.6211 12.2088 12.2277C12.0431 12.8342 11.722 13.387 11.2772 13.8315L7.97679 17.1336C7.29887 17.8115 6.37941 18.1924 5.42068 18.1924C4.46195 18.1924 3.54249 17.8115 2.86457 17.1336C2.18665 16.4557 1.80579 15.5362 1.80579 14.5775C1.80579 13.6188 2.18665 12.6993 2.86457 12.0214L4.29707 10.5907C4.09496 9.83331 4.01687 9.04999 4.06585 8.26762Z" fill="#B3B3B3"/>
<path d="M7.4459 4.88959C6.83298 5.50259 6.37606 6.25368 6.11348 7.07981C5.85091 7.90594 5.79034 8.783 5.93687 9.63739C6.08339 10.4918 6.43274 11.2985 6.95557 11.99C7.47841 12.6814 8.15948 13.2373 8.94163 13.6111L10.3416 12.2093C9.72914 12.045 9.17069 11.7224 8.72239 11.2739C8.27409 10.8254 7.95172 10.2668 7.78769 9.65429C7.62367 9.04174 7.62375 8.39681 7.78794 7.78431C7.95212 7.1718 8.27463 6.6133 8.72305 6.16493L12.0234 2.86276C12.7013 2.18484 13.6208 1.80399 14.5795 1.80399C15.5382 1.80399 16.4577 2.18484 17.1356 2.86276C17.8136 3.54068 18.1944 4.46014 18.1944 5.41887C18.1944 6.3776 17.8136 7.29706 17.1356 7.97498L15.7031 9.40568C15.9054 10.1644 15.9831 10.9502 15.9344 11.7306L18.4128 9.25213C19.4292 8.23573 20.0002 6.85719 20.0002 5.41978C20.0002 3.98236 19.4292 2.60382 18.4128 1.58742C17.3964 0.571011 16.0178 0 14.5804 0C13.143 0 11.7645 0.571011 10.7481 1.58742L7.4459 4.88959Z" fill="#B3B3B3"/>
</svg>
