<svg width="220" height="220" viewBox="0 0 220 220" fill="none" xmlns="http://www.w3.org/2000/svg">
<rect width="220" height="220" fill="#050D2E"/>
<g clip-path="url(#clip0_25_270)">
<path d="M94.4033 194.154C93.1043 193.974 92.4491 195.421 93.7245 196.266C107.897 205.649 124.169 198.999 128.515 194.154C130.007 192.491 129.119 192.529 127.377 193.504C110.186 203.124 98.3104 194.694 94.4033 194.154Z" fill="white"/>
<path d="M95.5267 184.519C93.2014 183.556 92.0084 186.224 94.4033 187.618C108.901 196.052 124.711 189.396 128.544 184.519C129.83 182.882 128.951 182.891 127.286 183.854C109.241 191.814 100.012 186.376 95.5267 184.519Z" fill="white"/>
<path d="M96.7064 174.704C93.6123 173.389 91.6156 176.951 94.7555 178.765C108.249 186.563 121.552 180.912 126.43 176.734C129.844 173.81 130.463 172.423 126.43 174.303C109.36 182.263 100.706 176.404 96.7064 174.704Z" fill="white"/>
<path d="M94.3036 167.312C93.636 161.525 90.2086 134.427 80.485 124.914C57.0745 102.009 69.2674 51.4889 111.049 51.4889C152.83 51.4889 165.023 102.009 141.612 124.914C131.889 134.427 128.461 161.525 127.794 167.312C126.168 169.099 119.665 172.348 111.049 172.348C102.432 172.348 95.9294 169.099 94.3036 167.312Z" fill="white"/>
<path d="M183.213 133.099C187.737 138.021 185.834 141.172 179.281 139.844C174.046 138.784 164.838 134.001 168.087 128.809C171.336 123.617 179.679 129.255 183.213 133.099Z" fill="white"/>
<path d="M189.029 82.1863C195.705 82.5432 196.546 86.1267 190.932 89.758C186.447 92.6593 176.519 95.6755 175.213 89.6914C173.907 83.7074 183.815 81.9076 189.029 82.1863Z" fill="white"/>
<path d="M171.603 35.7646C177.854 33.3937 180.072 36.3318 176.404 41.9215C173.473 46.3877 165.611 53.1581 161.998 48.2119C158.386 43.2657 166.721 37.6163 171.603 35.7646Z" fill="white"/>
<path d="M114.945 23.7689C112.971 17.3814 109.29 17.4394 107.137 23.7689C105.417 28.8262 104.913 39.19 111.035 38.9974C117.157 38.8047 116.486 28.7574 114.945 23.7689Z" fill="white"/>
<path d="M50.2609 35.7646C44.0099 33.3937 41.7924 36.3318 45.4601 41.9215C48.3907 46.3877 56.2536 53.1581 59.866 48.2119C63.4783 43.2657 55.1428 37.6163 50.2609 35.7646Z" fill="white"/>
<path d="M29.806 82.1863C23.1301 82.5432 22.2888 86.1267 27.9023 89.758C32.3875 92.6593 42.3156 95.6755 43.6215 89.6914C44.9273 83.7074 35.0199 81.9076 29.806 82.1863Z" fill="white"/>
<path d="M38.6516 133.099C34.127 138.021 36.0303 141.172 42.5829 139.844C47.8184 138.784 57.0263 134.001 53.7772 128.809C50.5281 123.617 42.1852 129.255 38.6516 133.099Z" fill="white"/>
</g>
<defs>
<clipPath id="clip0_25_270">
<rect width="173" height="182" fill="white" transform="translate(23 19)"/>
</clipPath>
</defs>
</svg>
