<svg width="408" height="44" viewBox="0 0 408 44" fill="none" xmlns="http://www.w3.org/2000/svg">
<g clip-path="url(#clip0_9_54)">
<path d="M16.5094 41.5485C16.2091 41.5068 16.0576 41.8418 16.3525 42.0374C19.6293 44.2096 23.3917 42.6701 24.3965 41.5485C24.7415 41.1635 24.5362 41.1723 24.1334 41.398C20.1586 43.625 17.4128 41.6735 16.5094 41.5485Z" fill="white"/>
<path d="M16.7694 39.3179C16.2317 39.095 15.9559 39.7126 16.5096 40.0353C19.8616 41.9878 23.5172 40.447 24.4034 39.3179C24.7008 38.9389 24.4975 38.941 24.1126 39.164C19.9402 41.0067 17.8065 39.7478 16.7694 39.3179Z" fill="white"/>
<path d="M17.0421 37.0458C16.3267 36.7414 15.865 37.566 16.591 37.9859C19.7109 39.7912 22.7867 38.4829 23.9146 37.5157C24.704 36.8388 24.8471 36.5177 23.9146 36.9529C19.9678 38.7957 17.967 37.4393 17.0421 37.0458Z" fill="white"/>
<path d="M16.4863 35.3345C16.332 33.9948 15.5395 27.7216 13.2913 25.5193C7.87843 20.2168 10.6976 8.52124 20.358 8.52124C30.0184 8.52124 32.8376 20.2168 27.4247 25.5193C25.1766 27.7216 24.384 33.9948 24.2298 35.3345C23.8538 35.7482 22.3502 36.5003 20.358 36.5003C18.3658 36.5003 16.8622 35.7482 16.4863 35.3345Z" fill="white"/>
<path d="M37.0437 27.4141C38.0897 28.5536 37.6497 29.283 36.1346 28.9756C34.9241 28.7302 32.7951 27.6229 33.5463 26.421C34.2976 25.219 36.2266 26.5242 37.0437 27.4141Z" fill="white"/>
<path d="M38.3881 15.6277C39.9317 15.7103 40.1261 16.5399 38.8281 17.3806C37.7911 18.0522 35.4956 18.7505 35.1937 17.3651C34.8917 15.9798 37.1826 15.5632 38.3881 15.6277Z" fill="white"/>
<path d="M34.3593 4.88103C35.8046 4.33216 36.3175 5.01234 35.4694 6.30636C34.7917 7.3403 32.9739 8.90766 32.1385 7.7626C31.3034 6.61755 33.2305 5.3097 34.3593 4.88103Z" fill="white"/>
<path d="M21.2591 2.104C20.8026 0.625301 19.9517 0.638712 19.4539 2.104C19.0562 3.27478 18.9396 5.67402 20.3551 5.62944C21.7705 5.58483 21.6155 3.25887 21.2591 2.104Z" fill="white"/>
<path d="M6.30311 4.88103C4.85779 4.33216 4.34507 5.01234 5.1931 6.30636C5.87069 7.3403 7.6887 8.90766 8.52394 7.7626C9.35916 6.61755 7.43187 5.3097 6.30311 4.88103Z" fill="white"/>
<path d="M1.57382 15.6277C0.0302389 15.7103 -0.164277 16.5399 1.13364 17.3806C2.17069 18.0522 4.4662 18.7505 4.76815 17.3651C5.07007 15.9798 2.77934 15.5632 1.57382 15.6277Z" fill="white"/>
<path d="M3.61903 27.4141C2.57288 28.5536 3.01295 29.283 4.528 28.9756C5.73852 28.7302 7.86752 27.6229 7.11628 26.421C6.36505 25.219 4.43605 26.5242 3.61903 27.4141Z" fill="white"/>
</g>
<path d="M58.4785 14.7812L59.8262 20.123L61.3594 14.7812H64.7676V29H62.248V24.791L62.3652 18.1406L60.5 24.3125H59.1426L57.4727 18.4043L57.5898 24.791V29H55.0703V14.7812H58.4785ZM73.8203 29C73.7552 28.8698 73.6999 28.7201 73.6543 28.5508C73.6087 28.3815 73.5697 28.2025 73.5371 28.0137C73.3874 28.1764 73.2148 28.3294 73.0195 28.4727C72.8242 28.6159 72.6094 28.7396 72.375 28.8438C72.1341 28.9544 71.8704 29.0391 71.584 29.0977C71.2975 29.1628 70.9883 29.1953 70.6562 29.1953C70.1159 29.1953 69.6178 29.1172 69.1621 28.9609C68.7129 28.8047 68.3255 28.5866 68 28.3066C67.6745 28.0267 67.4206 27.6947 67.2383 27.3105C67.056 26.9199 66.9648 26.4967 66.9648 26.041C66.9648 25.4551 67.0788 24.9375 67.3066 24.4883C67.5345 24.0326 67.8763 23.6582 68.332 23.3652C68.7422 23.0983 69.2467 22.8965 69.8457 22.7598C70.4512 22.6165 71.1445 22.5449 71.9258 22.5449H73.4395V21.9199C73.4395 21.6725 73.4004 21.4512 73.3223 21.2559C73.2441 21.054 73.127 20.8815 72.9707 20.7383C72.8079 20.5885 72.6029 20.4746 72.3555 20.3965C72.1146 20.3118 71.8314 20.2695 71.5059 20.2695C71.2194 20.2695 70.972 20.3053 70.7637 20.377C70.5553 20.4421 70.3861 20.5365 70.2559 20.6602C70.1387 20.7708 70.0508 20.9043 69.9922 21.0605C69.9401 21.2168 69.9141 21.3893 69.9141 21.5781H67.1992C67.1992 21.1289 67.2969 20.7025 67.4922 20.2988C67.694 19.8952 67.987 19.5404 68.3711 19.2344C68.7487 18.9284 69.2109 18.6875 69.7578 18.5117C70.3112 18.3294 70.9427 18.2383 71.6523 18.2383C72.2904 18.2383 72.8828 18.3164 73.4297 18.4727C73.9831 18.6289 74.4616 18.86 74.8652 19.166C75.2689 19.472 75.5846 19.8594 75.8125 20.3281C76.0404 20.7904 76.1543 21.3275 76.1543 21.9395V26.4707C76.1543 27.0371 76.1901 27.5059 76.2617 27.877C76.3333 28.248 76.4375 28.5671 76.5742 28.834V29H73.8203ZM71.2324 27.0957C71.5059 27.0957 71.7598 27.0632 71.9941 26.998C72.2285 26.9329 72.4401 26.8483 72.6289 26.7441C72.8177 26.64 72.9805 26.5228 73.1172 26.3926C73.2539 26.2559 73.3613 26.1191 73.4395 25.9824V24.166H72.0527C71.6296 24.166 71.2682 24.2083 70.9688 24.293C70.6693 24.3711 70.4251 24.4818 70.2363 24.625C70.0475 24.7747 69.9076 24.9538 69.8164 25.1621C69.7253 25.3639 69.6797 25.5853 69.6797 25.8262C69.6797 26.015 69.7122 26.1908 69.7773 26.3535C69.849 26.5098 69.9499 26.6432 70.0801 26.7539C70.2103 26.8581 70.3698 26.9427 70.5586 27.0078C70.7539 27.0664 70.9785 27.0957 71.2324 27.0957ZM86.8184 18.2383C87.2285 18.2383 87.6061 18.2676 87.9512 18.3262C88.3027 18.3783 88.5859 18.4368 88.8008 18.502L88.4004 21.207C88.0423 21.1224 87.6745 21.0605 87.2969 21.0215C86.9258 20.9759 86.571 20.9531 86.2324 20.9531C85.8809 20.9531 85.5618 20.9857 85.2754 21.0508C84.9954 21.1094 84.7448 21.2005 84.5234 21.3242C84.2565 21.4674 84.0286 21.6497 83.8398 21.8711C83.651 22.0924 83.4948 22.3529 83.3711 22.6523V29H80.6562V18.4336H83.1855L83.293 19.9277L83.3125 20.1621C83.7422 19.5632 84.2565 19.0944 84.8555 18.7559C85.4544 18.4108 86.1087 18.2383 86.8184 18.2383ZM91.9648 18.4336H97.7168V26.793H100.578V29H91.9648V26.793H94.9727V20.6504H91.9648V18.4336ZM94.7773 15.7285C94.7773 15.5202 94.8132 15.3281 94.8848 15.1523C94.9629 14.9701 95.0703 14.8138 95.207 14.6836C95.3438 14.5599 95.5065 14.4622 95.6953 14.3906C95.8906 14.319 96.1055 14.2832 96.3398 14.2832C96.8216 14.2832 97.2025 14.4199 97.4824 14.6934C97.7689 14.9603 97.9121 15.3053 97.9121 15.7285C97.9121 16.1517 97.7689 16.5 97.4824 16.7734C97.2025 17.0404 96.8216 17.1738 96.3398 17.1738C96.1055 17.1738 95.8906 17.138 95.6953 17.0664C95.5065 16.9948 95.3438 16.8939 95.207 16.7637C95.0703 16.64 94.9629 16.4902 94.8848 16.3145C94.8132 16.1322 94.7773 15.9368 94.7773 15.7285ZM109.855 29C109.79 28.8698 109.735 28.7201 109.689 28.5508C109.644 28.3815 109.605 28.2025 109.572 28.0137C109.423 28.1764 109.25 28.3294 109.055 28.4727C108.859 28.6159 108.645 28.7396 108.41 28.8438C108.169 28.9544 107.906 29.0391 107.619 29.0977C107.333 29.1628 107.023 29.1953 106.691 29.1953C106.151 29.1953 105.653 29.1172 105.197 28.9609C104.748 28.8047 104.361 28.5866 104.035 28.3066C103.71 28.0267 103.456 27.6947 103.273 27.3105C103.091 26.9199 103 26.4967 103 26.041C103 25.4551 103.114 24.9375 103.342 24.4883C103.57 24.0326 103.911 23.6582 104.367 23.3652C104.777 23.0983 105.282 22.8965 105.881 22.7598C106.486 22.6165 107.18 22.5449 107.961 22.5449H109.475V21.9199C109.475 21.6725 109.436 21.4512 109.357 21.2559C109.279 21.054 109.162 20.8815 109.006 20.7383C108.843 20.5885 108.638 20.4746 108.391 20.3965C108.15 20.3118 107.867 20.2695 107.541 20.2695C107.255 20.2695 107.007 20.3053 106.799 20.377C106.59 20.4421 106.421 20.5365 106.291 20.6602C106.174 20.7708 106.086 20.9043 106.027 21.0605C105.975 21.2168 105.949 21.3893 105.949 21.5781H103.234C103.234 21.1289 103.332 20.7025 103.527 20.2988C103.729 19.8952 104.022 19.5404 104.406 19.2344C104.784 18.9284 105.246 18.6875 105.793 18.5117C106.346 18.3294 106.978 18.2383 107.688 18.2383C108.326 18.2383 108.918 18.3164 109.465 18.4727C110.018 18.6289 110.497 18.86 110.9 19.166C111.304 19.472 111.62 19.8594 111.848 20.3281C112.076 20.7904 112.189 21.3275 112.189 21.9395V26.4707C112.189 27.0371 112.225 27.5059 112.297 27.877C112.368 28.248 112.473 28.5671 112.609 28.834V29H109.855ZM107.268 27.0957C107.541 27.0957 107.795 27.0632 108.029 26.998C108.264 26.9329 108.475 26.8483 108.664 26.7441C108.853 26.64 109.016 26.5228 109.152 26.3926C109.289 26.2559 109.396 26.1191 109.475 25.9824V24.166H108.088C107.665 24.166 107.303 24.2083 107.004 24.293C106.704 24.3711 106.46 24.4818 106.271 24.625C106.083 24.7747 105.943 24.9538 105.852 25.1621C105.76 25.3639 105.715 25.5853 105.715 25.8262C105.715 26.015 105.747 26.1908 105.812 26.3535C105.884 26.5098 105.985 26.6432 106.115 26.7539C106.245 26.8581 106.405 26.9427 106.594 27.0078C106.789 27.0664 107.014 27.0957 107.268 27.0957ZM115.266 29V18.4336H117.727L117.893 19.8984C118.029 19.7031 118.179 19.5241 118.342 19.3613C118.505 19.1986 118.677 19.0521 118.859 18.9219C119.172 18.7005 119.514 18.5312 119.885 18.4141C120.256 18.2969 120.65 18.2383 121.066 18.2383C121.6 18.2383 122.089 18.3164 122.531 18.4727C122.974 18.6289 123.358 18.8763 123.684 19.2148C124.003 19.5599 124.25 20.0026 124.426 20.543C124.608 21.0768 124.699 21.7279 124.699 22.4961V29H121.984V22.5352C121.984 22.1185 121.936 21.7767 121.838 21.5098C121.747 21.2363 121.613 21.0215 121.438 20.8652C121.262 20.709 121.05 20.6016 120.803 20.543C120.555 20.4779 120.275 20.4453 119.963 20.4453C119.702 20.4453 119.462 20.4746 119.24 20.5332C119.025 20.5918 118.833 20.6797 118.664 20.7969C118.527 20.8815 118.404 20.9824 118.293 21.0996C118.182 21.2168 118.081 21.347 117.99 21.4902V29H115.266ZM126.906 23.6191C126.906 22.8509 127.017 22.1413 127.238 21.4902C127.46 20.8327 127.785 20.263 128.215 19.7812C128.638 19.2995 129.156 18.9219 129.768 18.6484C130.386 18.375 131.092 18.2383 131.887 18.2383C132.681 18.2383 133.387 18.375 134.006 18.6484C134.624 18.9219 135.148 19.2995 135.578 19.7812C136.001 20.263 136.324 20.8327 136.545 21.4902C136.766 22.1413 136.877 22.8509 136.877 23.6191V23.8242C136.877 24.599 136.766 25.3151 136.545 25.9727C136.324 26.6237 136.001 27.1901 135.578 27.6719C135.155 28.1536 134.634 28.5312 134.016 28.8047C133.397 29.0716 132.694 29.2051 131.906 29.2051C131.112 29.2051 130.402 29.0716 129.777 28.8047C129.159 28.5312 128.638 28.1536 128.215 27.6719C127.785 27.1901 127.46 26.6237 127.238 25.9727C127.017 25.3151 126.906 24.599 126.906 23.8242V23.6191ZM129.621 23.8242C129.621 24.2669 129.663 24.6836 129.748 25.0742C129.833 25.4583 129.966 25.7936 130.148 26.0801C130.331 26.373 130.565 26.6042 130.852 26.7734C131.145 26.9427 131.496 27.0273 131.906 27.0273C132.303 27.0273 132.645 26.9427 132.932 26.7734C133.218 26.6042 133.452 26.373 133.635 26.0801C133.811 25.7936 133.941 25.4583 134.025 25.0742C134.11 24.6836 134.152 24.2669 134.152 23.8242V23.6191C134.152 23.1895 134.11 22.7826 134.025 22.3984C133.941 22.0143 133.811 21.6758 133.635 21.3828C133.452 21.0898 133.218 20.8587 132.932 20.6895C132.645 20.5202 132.297 20.4355 131.887 20.4355C131.483 20.4355 131.138 20.5202 130.852 20.6895C130.565 20.8587 130.331 21.0898 130.148 21.3828C129.966 21.6758 129.833 22.0143 129.748 22.3984C129.663 22.7826 129.621 23.1895 129.621 23.6191V23.8242ZM139.328 33.0625V18.4336H141.838L141.936 19.4688C142.079 19.293 142.235 19.1367 142.404 19C142.574 18.8568 142.756 18.7331 142.951 18.6289C143.186 18.5052 143.443 18.4108 143.723 18.3457C144.009 18.2741 144.315 18.2383 144.641 18.2383C145.311 18.2383 145.904 18.3685 146.418 18.6289C146.932 18.8828 147.365 19.2441 147.717 19.7129C148.068 20.1882 148.332 20.7578 148.508 21.4219C148.69 22.0794 148.781 22.8086 148.781 23.6094V23.8145C148.781 24.5827 148.69 25.2956 148.508 25.9531C148.332 26.6107 148.072 27.1771 147.727 27.6523C147.375 28.1341 146.942 28.5117 146.428 28.7852C145.913 29.0586 145.324 29.1953 144.66 29.1953C144.309 29.1953 143.983 29.1562 143.684 29.0781C143.391 29.0065 143.117 28.8991 142.863 28.7559C142.714 28.6647 142.57 28.5638 142.434 28.4531C142.297 28.3424 142.167 28.2188 142.043 28.082V33.0625H139.328ZM146.066 23.6094C146.066 23.1667 146.024 22.7533 145.939 22.3691C145.861 21.9785 145.738 21.64 145.568 21.3535C145.393 21.0736 145.168 20.8522 144.895 20.6895C144.628 20.5267 144.302 20.4453 143.918 20.4453C143.697 20.4453 143.495 20.4681 143.312 20.5137C143.13 20.5527 142.964 20.6113 142.814 20.6895C142.645 20.7806 142.495 20.8945 142.365 21.0312C142.242 21.168 142.134 21.3275 142.043 21.5098V25.9238C142.128 26.0931 142.229 26.2461 142.346 26.3828C142.469 26.5195 142.609 26.6367 142.766 26.7344C142.915 26.8255 143.088 26.8971 143.283 26.9492C143.479 26.9948 143.697 27.0176 143.938 27.0176C144.322 27.0176 144.647 26.9329 144.914 26.7637C145.188 26.5944 145.409 26.3633 145.578 26.0703C145.747 25.7773 145.871 25.4388 145.949 25.0547C146.027 24.6641 146.066 24.2507 146.066 23.8145V23.6094ZM150.93 23.6191C150.93 22.8509 151.04 22.1413 151.262 21.4902C151.483 20.8327 151.809 20.263 152.238 19.7812C152.661 19.2995 153.179 18.9219 153.791 18.6484C154.41 18.375 155.116 18.2383 155.91 18.2383C156.704 18.2383 157.411 18.375 158.029 18.6484C158.648 18.9219 159.172 19.2995 159.602 19.7812C160.025 20.263 160.347 20.8327 160.568 21.4902C160.79 22.1413 160.9 22.8509 160.9 23.6191V23.8242C160.9 24.599 160.79 25.3151 160.568 25.9727C160.347 26.6237 160.025 27.1901 159.602 27.6719C159.178 28.1536 158.658 28.5312 158.039 28.8047C157.421 29.0716 156.717 29.2051 155.93 29.2051C155.135 29.2051 154.426 29.0716 153.801 28.8047C153.182 28.5312 152.661 28.1536 152.238 27.6719C151.809 27.1901 151.483 26.6237 151.262 25.9727C151.04 25.3151 150.93 24.599 150.93 23.8242V23.6191ZM153.645 23.8242C153.645 24.2669 153.687 24.6836 153.771 25.0742C153.856 25.4583 153.99 25.7936 154.172 26.0801C154.354 26.373 154.589 26.6042 154.875 26.7734C155.168 26.9427 155.52 27.0273 155.93 27.0273C156.327 27.0273 156.669 26.9427 156.955 26.7734C157.242 26.6042 157.476 26.373 157.658 26.0801C157.834 25.7936 157.964 25.4583 158.049 25.0742C158.133 24.6836 158.176 24.2669 158.176 23.8242V23.6191C158.176 23.1895 158.133 22.7826 158.049 22.3984C157.964 22.0143 157.834 21.6758 157.658 21.3828C157.476 21.0898 157.242 20.8587 156.955 20.6895C156.669 20.5202 156.32 20.4355 155.91 20.4355C155.507 20.4355 155.161 20.5202 154.875 20.6895C154.589 20.8587 154.354 21.0898 154.172 21.3828C153.99 21.6758 153.856 22.0143 153.771 22.3984C153.687 22.7826 153.645 23.1895 153.645 23.6191V23.8242ZM163.879 14H169.787V26.793H172.814V29H163.879V26.793H167.043V16.2168H163.879V14ZM176.047 18.4336H181.799V26.793H184.66V29H176.047V26.793H179.055V20.6504H176.047V18.4336ZM178.859 15.7285C178.859 15.5202 178.895 15.3281 178.967 15.1523C179.045 14.9701 179.152 14.8138 179.289 14.6836C179.426 14.5599 179.589 14.4622 179.777 14.3906C179.973 14.319 180.188 14.2832 180.422 14.2832C180.904 14.2832 181.285 14.4199 181.564 14.6934C181.851 14.9603 181.994 15.3053 181.994 15.7285C181.994 16.1517 181.851 16.5 181.564 16.7734C181.285 17.0404 180.904 17.1738 180.422 17.1738C180.188 17.1738 179.973 17.138 179.777 17.0664C179.589 16.9948 179.426 16.8939 179.289 16.7637C179.152 16.64 179.045 16.4902 178.967 16.3145C178.895 16.1322 178.859 15.9368 178.859 15.7285ZM194.152 26.0996C194.152 25.9368 194.113 25.7936 194.035 25.6699C193.964 25.5462 193.833 25.429 193.645 25.3184C193.449 25.2142 193.192 25.1165 192.873 25.0254C192.554 24.9342 192.15 24.8431 191.662 24.752C191.044 24.6283 190.477 24.4753 189.963 24.293C189.455 24.1042 189.019 23.8763 188.654 23.6094C188.29 23.349 188.003 23.0462 187.795 22.7012C187.593 22.3561 187.492 21.959 187.492 21.5098C187.492 21.0736 187.596 20.6569 187.805 20.2598C188.013 19.8626 188.312 19.5143 188.703 19.2148C189.094 18.9154 189.569 18.6777 190.129 18.502C190.689 18.3262 191.32 18.2383 192.023 18.2383C192.759 18.2383 193.42 18.3262 194.006 18.502C194.592 18.6712 195.09 18.9056 195.5 19.2051C195.904 19.5111 196.213 19.8724 196.428 20.2891C196.643 20.7057 196.75 21.1582 196.75 21.6465H194.035C194.035 21.4707 194.006 21.3079 193.947 21.1582C193.889 21.002 193.801 20.862 193.684 20.7383C193.521 20.5755 193.299 20.4453 193.02 20.3477C192.746 20.25 192.414 20.2012 192.023 20.2012C191.691 20.2012 191.402 20.2337 191.154 20.2988C190.907 20.3639 190.705 20.4551 190.549 20.5723C190.406 20.6764 190.295 20.8001 190.217 20.9434C190.145 21.0801 190.109 21.2266 190.109 21.3828C190.109 21.5391 190.142 21.6855 190.207 21.8223C190.272 21.9525 190.389 22.0697 190.559 22.1738C190.721 22.2845 190.946 22.3854 191.232 22.4766C191.519 22.5612 191.883 22.6361 192.326 22.7012C192.964 22.8053 193.557 22.9388 194.104 23.1016C194.65 23.2643 195.122 23.4727 195.52 23.7266C195.917 23.987 196.226 24.3027 196.447 24.6738C196.675 25.0384 196.789 25.4746 196.789 25.9824C196.789 26.4512 196.675 26.8841 196.447 27.2812C196.226 27.6719 195.91 28.0104 195.5 28.2969C195.083 28.5833 194.582 28.8079 193.996 28.9707C193.41 29.127 192.756 29.2051 192.033 29.2051C191.239 29.2051 190.536 29.1009 189.924 28.8926C189.318 28.6842 188.811 28.4108 188.4 28.0723C187.99 27.7402 187.678 27.3626 187.463 26.9395C187.255 26.5098 187.15 26.0801 187.15 25.6504H189.738C189.758 25.9368 189.836 26.1842 189.973 26.3926C190.109 26.5944 190.285 26.7572 190.5 26.8809C190.715 27.0111 190.959 27.1055 191.232 27.1641C191.512 27.2227 191.799 27.252 192.092 27.252C192.443 27.252 192.749 27.2227 193.01 27.1641C193.277 27.099 193.495 27.0143 193.664 26.9102C193.827 26.806 193.947 26.6855 194.025 26.5488C194.11 26.4121 194.152 26.2624 194.152 26.0996ZM214.182 23.7852V29H211.438V14.7812H216.301C217.076 14.7812 217.775 14.8952 218.4 15.123C219.025 15.3444 219.559 15.6536 220.002 16.0508C220.438 16.4544 220.773 16.9362 221.008 17.4961C221.249 18.056 221.369 18.6777 221.369 19.3613C221.369 19.9993 221.249 20.5885 221.008 21.1289C220.773 21.6693 220.438 22.1348 220.002 22.5254C219.559 22.9225 219.025 23.2318 218.4 23.4531C217.775 23.6745 217.076 23.7852 216.301 23.7852H214.182ZM214.182 21.5586H216.301C216.691 21.5586 217.03 21.5 217.316 21.3828C217.603 21.2656 217.844 21.1061 218.039 20.9043C218.228 20.7025 218.368 20.4714 218.459 20.2109C218.557 19.944 218.605 19.6673 218.605 19.3809C218.605 19.0488 218.557 18.7396 218.459 18.4531C218.368 18.1667 218.228 17.916 218.039 17.7012C217.844 17.4863 217.603 17.3171 217.316 17.1934C217.03 17.0697 216.691 17.0078 216.301 17.0078H214.182V21.5586ZM230.959 18.2383C231.369 18.2383 231.747 18.2676 232.092 18.3262C232.443 18.3783 232.727 18.4368 232.941 18.502L232.541 21.207C232.183 21.1224 231.815 21.0605 231.438 21.0215C231.066 20.9759 230.712 20.9531 230.373 20.9531C230.021 20.9531 229.702 20.9857 229.416 21.0508C229.136 21.1094 228.885 21.2005 228.664 21.3242C228.397 21.4674 228.169 21.6497 227.98 21.8711C227.792 22.0924 227.635 22.3529 227.512 22.6523V29H224.797V18.4336H227.326L227.434 19.9277L227.453 20.1621C227.883 19.5632 228.397 19.0944 228.996 18.7559C229.595 18.4108 230.249 18.2383 230.959 18.2383ZM235.012 23.6191C235.012 22.8509 235.122 22.1413 235.344 21.4902C235.565 20.8327 235.891 20.263 236.32 19.7812C236.743 19.2995 237.261 18.9219 237.873 18.6484C238.492 18.375 239.198 18.2383 239.992 18.2383C240.786 18.2383 241.493 18.375 242.111 18.6484C242.73 18.9219 243.254 19.2995 243.684 19.7812C244.107 20.263 244.429 20.8327 244.65 21.4902C244.872 22.1413 244.982 22.8509 244.982 23.6191V23.8242C244.982 24.599 244.872 25.3151 244.65 25.9727C244.429 26.6237 244.107 27.1901 243.684 27.6719C243.26 28.1536 242.74 28.5312 242.121 28.8047C241.503 29.0716 240.799 29.2051 240.012 29.2051C239.217 29.2051 238.508 29.0716 237.883 28.8047C237.264 28.5312 236.743 28.1536 236.32 27.6719C235.891 27.1901 235.565 26.6237 235.344 25.9727C235.122 25.3151 235.012 24.599 235.012 23.8242V23.6191ZM237.727 23.8242C237.727 24.2669 237.769 24.6836 237.854 25.0742C237.938 25.4583 238.072 25.7936 238.254 26.0801C238.436 26.373 238.671 26.6042 238.957 26.7734C239.25 26.9427 239.602 27.0273 240.012 27.0273C240.409 27.0273 240.751 26.9427 241.037 26.7734C241.324 26.6042 241.558 26.373 241.74 26.0801C241.916 25.7936 242.046 25.4583 242.131 25.0742C242.215 24.6836 242.258 24.2669 242.258 23.8242V23.6191C242.258 23.1895 242.215 22.7826 242.131 22.3984C242.046 22.0143 241.916 21.6758 241.74 21.3828C241.558 21.0898 241.324 20.8587 241.037 20.6895C240.751 20.5202 240.402 20.4355 239.992 20.4355C239.589 20.4355 239.243 20.5202 238.957 20.6895C238.671 20.8587 238.436 21.0898 238.254 21.3828C238.072 21.6758 237.938 22.0143 237.854 22.3984C237.769 22.7826 237.727 23.1895 237.727 23.6191V23.8242ZM247.121 23.6387C247.121 22.8379 247.219 22.1055 247.414 21.4414C247.616 20.7773 247.902 20.2077 248.273 19.7324C248.645 19.2572 249.094 18.8893 249.621 18.6289C250.148 18.3685 250.744 18.2383 251.408 18.2383C251.766 18.2383 252.092 18.2741 252.385 18.3457C252.684 18.4108 252.954 18.5117 253.195 18.6484C253.378 18.7461 253.547 18.8633 253.703 19C253.859 19.1302 254.003 19.2767 254.133 19.4395L254.24 18.4336H256.711V28.6582C256.711 29.3743 256.587 30.0124 256.34 30.5723C256.099 31.1322 255.76 31.6042 255.324 31.9883C254.882 32.3724 254.351 32.6621 253.732 32.8574C253.12 33.0592 252.443 33.1602 251.701 33.1602C251.382 33.1602 251.04 33.1276 250.676 33.0625C250.311 32.9974 249.95 32.8965 249.592 32.7598C249.234 32.623 248.895 32.4473 248.576 32.2324C248.257 32.0241 247.984 31.7734 247.756 31.4805L248.977 29.8301C249.152 30.0319 249.341 30.2077 249.543 30.3574C249.745 30.5137 249.956 30.6406 250.178 30.7383C250.393 30.8359 250.614 30.9076 250.842 30.9531C251.076 31.0052 251.317 31.0312 251.564 31.0312C251.962 31.0312 252.313 30.9759 252.619 30.8652C252.932 30.7546 253.192 30.5918 253.4 30.377C253.589 30.1816 253.732 29.9408 253.83 29.6543C253.934 29.3678 253.986 29.0456 253.986 28.6875V28.082C253.856 28.2253 253.719 28.3555 253.576 28.4727C253.433 28.5898 253.28 28.694 253.117 28.7852C252.876 28.9154 252.609 29.0163 252.316 29.0879C252.03 29.1595 251.721 29.1953 251.389 29.1953C250.731 29.1953 250.139 29.0618 249.611 28.7949C249.09 28.5215 248.645 28.1471 248.273 27.6719C247.902 27.1966 247.616 26.6335 247.414 25.9824C247.219 25.3249 247.121 24.612 247.121 23.8438V23.6387ZM249.846 23.8438C249.846 24.2865 249.888 24.6999 249.973 25.084C250.064 25.4616 250.201 25.7904 250.383 26.0703C250.565 26.3568 250.796 26.5814 251.076 26.7441C251.356 26.9069 251.688 26.9883 252.072 26.9883C252.307 26.9883 252.518 26.9655 252.707 26.9199C252.902 26.8743 253.078 26.8092 253.234 26.7246C253.397 26.6335 253.54 26.5228 253.664 26.3926C253.788 26.2624 253.895 26.1159 253.986 25.9531V21.4805C253.889 21.2982 253.771 21.1387 253.635 21.002C253.498 20.8652 253.342 20.7546 253.166 20.6699C253.016 20.5983 252.85 20.543 252.668 20.5039C252.492 20.4648 252.3 20.4453 252.092 20.4453C251.708 20.4453 251.376 20.5299 251.096 20.6992C250.816 20.862 250.585 21.0866 250.402 21.373C250.214 21.666 250.074 22.0078 249.982 22.3984C249.891 22.7826 249.846 23.196 249.846 23.6387V23.8438ZM266.994 18.2383C267.404 18.2383 267.782 18.2676 268.127 18.3262C268.479 18.3783 268.762 18.4368 268.977 18.502L268.576 21.207C268.218 21.1224 267.85 21.0605 267.473 21.0215C267.102 20.9759 266.747 20.9531 266.408 20.9531C266.057 20.9531 265.738 20.9857 265.451 21.0508C265.171 21.1094 264.921 21.2005 264.699 21.3242C264.432 21.4674 264.204 21.6497 264.016 21.8711C263.827 22.0924 263.671 22.3529 263.547 22.6523V29H260.832V18.4336H263.361L263.469 19.9277L263.488 20.1621C263.918 19.5632 264.432 19.0944 265.031 18.7559C265.63 18.4108 266.285 18.2383 266.994 18.2383ZM278.02 29C277.954 28.8698 277.899 28.7201 277.854 28.5508C277.808 28.3815 277.769 28.2025 277.736 28.0137C277.587 28.1764 277.414 28.3294 277.219 28.4727C277.023 28.6159 276.809 28.7396 276.574 28.8438C276.333 28.9544 276.07 29.0391 275.783 29.0977C275.497 29.1628 275.188 29.1953 274.855 29.1953C274.315 29.1953 273.817 29.1172 273.361 28.9609C272.912 28.8047 272.525 28.5866 272.199 28.3066C271.874 28.0267 271.62 27.6947 271.438 27.3105C271.255 26.9199 271.164 26.4967 271.164 26.041C271.164 25.4551 271.278 24.9375 271.506 24.4883C271.734 24.0326 272.076 23.6582 272.531 23.3652C272.941 23.0983 273.446 22.8965 274.045 22.7598C274.65 22.6165 275.344 22.5449 276.125 22.5449H277.639V21.9199C277.639 21.6725 277.6 21.4512 277.521 21.2559C277.443 21.054 277.326 20.8815 277.17 20.7383C277.007 20.5885 276.802 20.4746 276.555 20.3965C276.314 20.3118 276.031 20.2695 275.705 20.2695C275.419 20.2695 275.171 20.3053 274.963 20.377C274.755 20.4421 274.585 20.5365 274.455 20.6602C274.338 20.7708 274.25 20.9043 274.191 21.0605C274.139 21.2168 274.113 21.3893 274.113 21.5781H271.398C271.398 21.1289 271.496 20.7025 271.691 20.2988C271.893 19.8952 272.186 19.5404 272.57 19.2344C272.948 18.9284 273.41 18.6875 273.957 18.5117C274.51 18.3294 275.142 18.2383 275.852 18.2383C276.49 18.2383 277.082 18.3164 277.629 18.4727C278.182 18.6289 278.661 18.86 279.064 19.166C279.468 19.472 279.784 19.8594 280.012 20.3281C280.24 20.7904 280.354 21.3275 280.354 21.9395V26.4707C280.354 27.0371 280.389 27.5059 280.461 27.877C280.533 28.248 280.637 28.5671 280.773 28.834V29H278.02ZM275.432 27.0957C275.705 27.0957 275.959 27.0632 276.193 26.998C276.428 26.9329 276.639 26.8483 276.828 26.7441C277.017 26.64 277.18 26.5228 277.316 26.3926C277.453 26.2559 277.561 26.1191 277.639 25.9824V24.166H276.252C275.829 24.166 275.467 24.2083 275.168 24.293C274.868 24.3711 274.624 24.4818 274.436 24.625C274.247 24.7747 274.107 24.9538 274.016 25.1621C273.924 25.3639 273.879 25.5853 273.879 25.8262C273.879 26.015 273.911 26.1908 273.977 26.3535C274.048 26.5098 274.149 26.6432 274.279 26.7539C274.41 26.8581 274.569 26.9427 274.758 27.0078C274.953 27.0664 275.178 27.0957 275.432 27.0957ZM285.119 18.4336L285.197 19.7129C285.399 19.2572 285.676 18.8991 286.027 18.6387C286.385 18.3717 286.818 18.2383 287.326 18.2383C287.574 18.2383 287.795 18.2676 287.99 18.3262C288.186 18.3848 288.355 18.4759 288.498 18.5996C288.609 18.6908 288.703 18.8014 288.781 18.9316C288.866 19.0553 288.938 19.1986 288.996 19.3613C289.087 19.2051 289.188 19.0651 289.299 18.9414C289.416 18.8112 289.543 18.7005 289.68 18.6094C289.849 18.4922 290.041 18.401 290.256 18.3359C290.471 18.2708 290.705 18.2383 290.959 18.2383C291.278 18.2383 291.574 18.2969 291.848 18.4141C292.128 18.5312 292.372 18.7168 292.58 18.9707C292.782 19.2311 292.938 19.5664 293.049 19.9766C293.166 20.3802 293.225 20.875 293.225 21.4609V29H290.754V21.4512C290.754 21.2493 290.731 21.0833 290.686 20.9531C290.646 20.8229 290.591 20.7188 290.52 20.6406C290.448 20.569 290.363 20.5202 290.266 20.4941C290.174 20.4616 290.08 20.4453 289.982 20.4453C289.878 20.4453 289.784 20.4583 289.699 20.4844C289.621 20.5104 289.546 20.5462 289.475 20.5918C289.416 20.6374 289.364 20.6895 289.318 20.748C289.273 20.8001 289.234 20.862 289.201 20.9336C289.201 20.9466 289.201 20.9759 289.201 21.0215C289.201 21.0671 289.201 21.1289 289.201 21.207V29H286.809V21.4414C286.809 21.2396 286.789 21.0736 286.75 20.9434C286.711 20.8132 286.659 20.7122 286.594 20.6406C286.522 20.569 286.441 20.5202 286.35 20.4941C286.258 20.4616 286.161 20.4453 286.057 20.4453C285.939 20.4453 285.835 20.4648 285.744 20.5039C285.653 20.543 285.572 20.5983 285.5 20.6699C285.448 20.722 285.402 20.7839 285.363 20.8555C285.324 20.9271 285.288 21.0052 285.256 21.0898V29H282.785V18.4336H285.119ZM297.131 18.4336L297.209 19.7129C297.411 19.2572 297.688 18.8991 298.039 18.6387C298.397 18.3717 298.83 18.2383 299.338 18.2383C299.585 18.2383 299.807 18.2676 300.002 18.3262C300.197 18.3848 300.367 18.4759 300.51 18.5996C300.62 18.6908 300.715 18.8014 300.793 18.9316C300.878 19.0553 300.949 19.1986 301.008 19.3613C301.099 19.2051 301.2 19.0651 301.311 18.9414C301.428 18.8112 301.555 18.7005 301.691 18.6094C301.861 18.4922 302.053 18.401 302.268 18.3359C302.482 18.2708 302.717 18.2383 302.971 18.2383C303.29 18.2383 303.586 18.2969 303.859 18.4141C304.139 18.5312 304.383 18.7168 304.592 18.9707C304.794 19.2311 304.95 19.5664 305.061 19.9766C305.178 20.3802 305.236 20.875 305.236 21.4609V29H302.766V21.4512C302.766 21.2493 302.743 21.0833 302.697 20.9531C302.658 20.8229 302.603 20.7188 302.531 20.6406C302.46 20.569 302.375 20.5202 302.277 20.4941C302.186 20.4616 302.092 20.4453 301.994 20.4453C301.89 20.4453 301.796 20.4583 301.711 20.4844C301.633 20.5104 301.558 20.5462 301.486 20.5918C301.428 20.6374 301.376 20.6895 301.33 20.748C301.285 20.8001 301.245 20.862 301.213 20.9336C301.213 20.9466 301.213 20.9759 301.213 21.0215C301.213 21.0671 301.213 21.1289 301.213 21.207V29H298.82V21.4414C298.82 21.2396 298.801 21.0736 298.762 20.9434C298.723 20.8132 298.671 20.7122 298.605 20.6406C298.534 20.569 298.452 20.5202 298.361 20.4941C298.27 20.4616 298.173 20.4453 298.068 20.4453C297.951 20.4453 297.847 20.4648 297.756 20.5039C297.665 20.543 297.583 20.5983 297.512 20.6699C297.46 20.722 297.414 20.7839 297.375 20.8555C297.336 20.9271 297.3 21.0052 297.268 21.0898V29H294.797V18.4336H297.131ZM308.176 18.4336H313.928V26.793H316.789V29H308.176V26.793H311.184V20.6504H308.176V18.4336ZM310.988 15.7285C310.988 15.5202 311.024 15.3281 311.096 15.1523C311.174 14.9701 311.281 14.8138 311.418 14.6836C311.555 14.5599 311.717 14.4622 311.906 14.3906C312.102 14.319 312.316 14.2832 312.551 14.2832C313.033 14.2832 313.413 14.4199 313.693 14.6934C313.98 14.9603 314.123 15.3053 314.123 15.7285C314.123 16.1517 313.98 16.5 313.693 16.7734C313.413 17.0404 313.033 17.1738 312.551 17.1738C312.316 17.1738 312.102 17.138 311.906 17.0664C311.717 16.9948 311.555 16.8939 311.418 16.7637C311.281 16.64 311.174 16.4902 311.096 16.3145C311.024 16.1322 310.988 15.9368 310.988 15.7285ZM319.465 29V18.4336H321.926L322.092 19.8984C322.229 19.7031 322.378 19.5241 322.541 19.3613C322.704 19.1986 322.876 19.0521 323.059 18.9219C323.371 18.7005 323.713 18.5312 324.084 18.4141C324.455 18.2969 324.849 18.2383 325.266 18.2383C325.799 18.2383 326.288 18.3164 326.73 18.4727C327.173 18.6289 327.557 18.8763 327.883 19.2148C328.202 19.5599 328.449 20.0026 328.625 20.543C328.807 21.0768 328.898 21.7279 328.898 22.4961V29H326.184V22.5352C326.184 22.1185 326.135 21.7767 326.037 21.5098C325.946 21.2363 325.812 21.0215 325.637 20.8652C325.461 20.709 325.249 20.6016 325.002 20.543C324.755 20.4779 324.475 20.4453 324.162 20.4453C323.902 20.4453 323.661 20.4746 323.439 20.5332C323.225 20.5918 323.033 20.6797 322.863 20.7969C322.727 20.8815 322.603 20.9824 322.492 21.0996C322.382 21.2168 322.281 21.347 322.189 21.4902V29H319.465ZM331.203 23.6387C331.203 22.8379 331.301 22.1055 331.496 21.4414C331.698 20.7773 331.984 20.2077 332.355 19.7324C332.727 19.2572 333.176 18.8893 333.703 18.6289C334.23 18.3685 334.826 18.2383 335.49 18.2383C335.848 18.2383 336.174 18.2741 336.467 18.3457C336.766 18.4108 337.036 18.5117 337.277 18.6484C337.46 18.7461 337.629 18.8633 337.785 19C337.941 19.1302 338.085 19.2767 338.215 19.4395L338.322 18.4336H340.793V28.6582C340.793 29.3743 340.669 30.0124 340.422 30.5723C340.181 31.1322 339.842 31.6042 339.406 31.9883C338.964 32.3724 338.433 32.6621 337.814 32.8574C337.202 33.0592 336.525 33.1602 335.783 33.1602C335.464 33.1602 335.122 33.1276 334.758 33.0625C334.393 32.9974 334.032 32.8965 333.674 32.7598C333.316 32.623 332.977 32.4473 332.658 32.2324C332.339 32.0241 332.066 31.7734 331.838 31.4805L333.059 29.8301C333.234 30.0319 333.423 30.2077 333.625 30.3574C333.827 30.5137 334.038 30.6406 334.26 30.7383C334.475 30.8359 334.696 30.9076 334.924 30.9531C335.158 31.0052 335.399 31.0312 335.646 31.0312C336.044 31.0312 336.395 30.9759 336.701 30.8652C337.014 30.7546 337.274 30.5918 337.482 30.377C337.671 30.1816 337.814 29.9408 337.912 29.6543C338.016 29.3678 338.068 29.0456 338.068 28.6875V28.082C337.938 28.2253 337.801 28.3555 337.658 28.4727C337.515 28.5898 337.362 28.694 337.199 28.7852C336.958 28.9154 336.691 29.0163 336.398 29.0879C336.112 29.1595 335.803 29.1953 335.471 29.1953C334.813 29.1953 334.221 29.0618 333.693 28.7949C333.173 28.5215 332.727 28.1471 332.355 27.6719C331.984 27.1966 331.698 26.6335 331.496 25.9824C331.301 25.3249 331.203 24.612 331.203 23.8438V23.6387ZM333.928 23.8438C333.928 24.2865 333.97 24.6999 334.055 25.084C334.146 25.4616 334.283 25.7904 334.465 26.0703C334.647 26.3568 334.878 26.5814 335.158 26.7441C335.438 26.9069 335.77 26.9883 336.154 26.9883C336.389 26.9883 336.6 26.9655 336.789 26.9199C336.984 26.8743 337.16 26.8092 337.316 26.7246C337.479 26.6335 337.622 26.5228 337.746 26.3926C337.87 26.2624 337.977 26.1159 338.068 25.9531V21.4805C337.971 21.2982 337.854 21.1387 337.717 21.002C337.58 20.8652 337.424 20.7546 337.248 20.6699C337.098 20.5983 336.932 20.543 336.75 20.5039C336.574 20.4648 336.382 20.4453 336.174 20.4453C335.79 20.4453 335.458 20.5299 335.178 20.6992C334.898 20.862 334.667 21.0866 334.484 21.373C334.296 21.666 334.156 22.0078 334.064 22.3984C333.973 22.7826 333.928 23.196 333.928 23.6387V23.8438ZM365.275 24.5469C365.23 25.263 365.074 25.9076 364.807 26.4805C364.546 27.0534 364.195 27.5417 363.752 27.9453C363.309 28.349 362.782 28.6615 362.17 28.8828C361.558 29.0977 360.881 29.2051 360.139 29.2051C359.553 29.2051 359.009 29.1302 358.508 28.9805C358.013 28.8242 357.567 28.6029 357.17 28.3164C356.805 28.0495 356.48 27.7272 356.193 27.3496C355.913 26.972 355.676 26.5553 355.48 26.0996C355.292 25.6439 355.145 25.1426 355.041 24.5957C354.943 24.0488 354.895 23.4694 354.895 22.8574V20.9434C354.895 20.3704 354.94 19.8268 355.031 19.3125C355.122 18.7917 355.259 18.3099 355.441 17.8672C355.65 17.3268 355.923 16.8451 356.262 16.4219C356.6 15.9987 356.984 15.6406 357.414 15.3477C357.798 15.1003 358.218 14.9115 358.674 14.7812C359.136 14.6445 359.631 14.5762 360.158 14.5762C360.939 14.5762 361.633 14.6868 362.238 14.9082C362.85 15.1296 363.371 15.4453 363.801 15.8555C364.23 16.2656 364.569 16.7669 364.816 17.3594C365.064 17.9518 365.22 18.6191 365.285 19.3613H362.551C362.525 18.9382 362.46 18.5671 362.355 18.248C362.258 17.929 362.115 17.6621 361.926 17.4473C361.73 17.2389 361.486 17.0827 361.193 16.9785C360.907 16.8678 360.562 16.8125 360.158 16.8125C359.943 16.8125 359.742 16.8353 359.553 16.8809C359.37 16.9264 359.201 16.9948 359.045 17.0859C358.778 17.2422 358.55 17.4668 358.361 17.7598C358.179 18.0462 358.033 18.3815 357.922 18.7656C357.837 19.0651 357.775 19.3971 357.736 19.7617C357.697 20.1198 357.678 20.5072 357.678 20.9238V22.8574C357.678 23.4238 357.707 23.9316 357.766 24.3809C357.831 24.8236 357.928 25.2109 358.059 25.543C358.15 25.7708 358.257 25.9727 358.381 26.1484C358.511 26.3242 358.658 26.4707 358.82 26.5879C358.996 26.7181 359.191 26.8158 359.406 26.8809C359.628 26.9395 359.872 26.9688 360.139 26.9688C360.497 26.9688 360.819 26.9232 361.105 26.832C361.392 26.7409 361.636 26.5977 361.838 26.4023C362.04 26.207 362.199 25.9564 362.316 25.6504C362.434 25.3444 362.505 24.9766 362.531 24.5469H365.275ZM368.078 14H373.986V26.793H377.014V29H368.078V26.793H371.242V16.2168H368.078V14ZM386.418 29L386.262 27.5156C385.904 28.043 385.471 28.4564 384.963 28.7559C384.462 29.0553 383.911 29.2051 383.312 29.2051C382.766 29.2051 382.264 29.1204 381.809 28.9512C381.353 28.7819 380.962 28.5117 380.637 28.1406C380.311 27.776 380.057 27.3105 379.875 26.7441C379.699 26.1712 379.611 25.4844 379.611 24.6836V18.4336H382.326V24.7031C382.326 25.1328 382.355 25.4941 382.414 25.7871C382.479 26.0801 382.58 26.3145 382.717 26.4902C382.854 26.6725 383.033 26.8027 383.254 26.8809C383.475 26.959 383.745 26.998 384.064 26.998C384.351 26.998 384.608 26.9688 384.836 26.9102C385.07 26.8516 385.275 26.7669 385.451 26.6562C385.601 26.5586 385.734 26.4414 385.852 26.3047C385.969 26.168 386.07 26.015 386.154 25.8457V18.4336H388.879V29H386.418ZM401.057 23.8242C401.057 24.332 401.021 24.8138 400.949 25.2695C400.878 25.7188 400.773 26.1354 400.637 26.5195C400.487 26.9427 400.288 27.3268 400.041 27.6719C399.8 28.0169 399.514 28.3034 399.182 28.5312C398.882 28.7461 398.544 28.9089 398.166 29.0195C397.795 29.1367 397.385 29.1953 396.936 29.1953C396.525 29.1953 396.151 29.1432 395.812 29.0391C395.48 28.9414 395.181 28.7949 394.914 28.5996C394.771 28.502 394.637 28.3945 394.514 28.2773C394.39 28.1536 394.273 28.0202 394.162 27.877L394.035 29H391.594V14H394.309V19.3906C394.439 19.2409 394.579 19.1042 394.729 18.9805C394.878 18.8503 395.038 18.7396 395.207 18.6484C395.448 18.5117 395.708 18.4108 395.988 18.3457C396.275 18.2741 396.584 18.2383 396.916 18.2383C397.372 18.2383 397.788 18.2969 398.166 18.4141C398.55 18.5312 398.892 18.7005 399.191 18.9219C399.432 19.0911 399.65 19.2962 399.846 19.5371C400.041 19.7715 400.214 20.0286 400.363 20.3086C400.598 20.7578 400.77 21.2624 400.881 21.8223C400.998 22.3822 401.057 22.9811 401.057 23.6191V23.8242ZM398.342 23.6191C398.342 23.3392 398.329 23.069 398.303 22.8086C398.277 22.5482 398.234 22.304 398.176 22.0762C398.104 21.8092 398.01 21.5716 397.893 21.3633C397.782 21.1484 397.613 20.9531 397.385 20.7773C397.235 20.6667 397.066 20.5853 396.877 20.5332C396.688 20.4746 396.473 20.4453 396.232 20.4453C395.907 20.4453 395.62 20.4909 395.373 20.582C395.126 20.6732 394.914 20.8066 394.738 20.9824C394.654 21.0671 394.576 21.1647 394.504 21.2754C394.432 21.3796 394.367 21.4935 394.309 21.6172V25.8262C394.387 25.9889 394.475 26.1387 394.572 26.2754C394.676 26.4056 394.797 26.5195 394.934 26.6172C395.096 26.7409 395.285 26.8353 395.5 26.9004C395.721 26.9655 395.972 26.998 396.252 26.998C396.493 26.998 396.711 26.9688 396.906 26.9102C397.102 26.8516 397.271 26.7702 397.414 26.666C397.616 26.5228 397.779 26.3372 397.902 26.1094C398.033 25.875 398.13 25.6113 398.195 25.3184C398.247 25.1035 398.283 24.8691 398.303 24.6152C398.329 24.3613 398.342 24.0977 398.342 23.8242V23.6191Z" fill="white"/>
<defs>
<clipPath id="clip0_9_54">
<rect width="40" height="42.1333" fill="white" transform="translate(0 1)"/>
</clipPath>
</defs>
</svg>
